<mxfile host="app.diagrams.net" modified="2021-11-01T21:47:05.006Z" agent="5.0 (Windows NT 10.0; Win64; x64) AppleWebKit/537.36 (KHTML, like Gecko) Chrome/95.0.4638.69 Safari/537.36" etag="5PZXEN_obdS3tD2Qh1bo" version="15.6.4" type="github">
  <diagram id="cAb9eKV6FXxrw53DXGPk" name="Page-1">
    <mxGraphModel dx="2062" dy="1114" grid="1" gridSize="10" guides="1" tooltips="1" connect="1" arrows="1" fold="1" page="1" pageScale="1" pageWidth="850" pageHeight="1100" math="0" shadow="0">
      <root>
        <mxCell id="0" />
        <mxCell id="1" parent="0" />
        <mxCell id="E3Vo4lR4PM5Q-WoB4YuT-1" value="" style="shape=cylinder3;whiteSpace=wrap;html=1;boundedLbl=1;backgroundOutline=1;size=15;" parent="1" vertex="1">
          <mxGeometry x="630" y="210" width="170" height="280" as="geometry" />
        </mxCell>
        <mxCell id="v9sFLwM3yu87hSWkuqIm-1" value="Database" style="rounded=0;whiteSpace=wrap;html=1;fontStyle=1" parent="1" vertex="1">
          <mxGeometry x="655" y="250" width="120" height="15" as="geometry" />
        </mxCell>
        <mxCell id="v9sFLwM3yu87hSWkuqIm-16" value="" style="rounded=1;whiteSpace=wrap;html=1;fillColor=default;strokeColor=default;fontColor=default;" parent="1" vertex="1">
          <mxGeometry x="327.5" y="240" width="220" height="620" as="geometry" />
        </mxCell>
        <mxCell id="v9sFLwM3yu87hSWkuqIm-17" value="&lt;b&gt;Express&lt;/b&gt;" style="rounded=0;whiteSpace=wrap;html=1;" parent="1" vertex="1">
          <mxGeometry x="397.5" y="250" width="80" height="30" as="geometry" />
        </mxCell>
        <mxCell id="v9sFLwM3yu87hSWkuqIm-19" value="Front End/React" style="swimlane;fontStyle=0;childLayout=stackLayout;horizontal=1;startSize=26;horizontalStack=0;resizeParent=1;resizeParentMax=0;resizeLast=0;collapsible=1;marginBottom=0;align=center;fontSize=14;" parent="1" vertex="1">
          <mxGeometry x="60" y="240" width="200" height="216" as="geometry" />
        </mxCell>
        <mxCell id="v9sFLwM3yu87hSWkuqIm-20" value="Home (Why are you here?)&#xa;    " style="text;strokeColor=none;fillColor=none;spacingLeft=4;spacingRight=4;overflow=hidden;rotatable=0;points=[[0,0.5],[1,0.5]];portConstraint=eastwest;fontSize=12;" parent="v9sFLwM3yu87hSWkuqIm-19" vertex="1">
          <mxGeometry y="26" width="200" height="30" as="geometry" />
        </mxCell>
        <mxCell id="v9sFLwM3yu87hSWkuqIm-21" value="Form Selection" style="text;strokeColor=none;fillColor=none;spacingLeft=4;spacingRight=4;overflow=hidden;rotatable=0;points=[[0,0.5],[1,0.5]];portConstraint=eastwest;fontSize=12;" parent="v9sFLwM3yu87hSWkuqIm-19" vertex="1">
          <mxGeometry y="56" width="200" height="30" as="geometry" />
        </mxCell>
        <mxCell id="v9sFLwM3yu87hSWkuqIm-22" value="User Input " style="text;strokeColor=none;fillColor=none;spacingLeft=4;spacingRight=4;overflow=hidden;rotatable=0;points=[[0,0.5],[1,0.5]];portConstraint=eastwest;fontSize=12;" parent="v9sFLwM3yu87hSWkuqIm-19" vertex="1">
          <mxGeometry y="86" width="200" height="26" as="geometry" />
        </mxCell>
        <mxCell id="v9sFLwM3yu87hSWkuqIm-23" value="Preview (Modal)" style="text;strokeColor=none;fillColor=none;spacingLeft=4;spacingRight=4;overflow=hidden;rotatable=0;points=[[0,0.5],[1,0.5]];portConstraint=eastwest;fontSize=12;" parent="v9sFLwM3yu87hSWkuqIm-19" vertex="1">
          <mxGeometry y="112" width="200" height="26" as="geometry" />
        </mxCell>
        <mxCell id="v9sFLwM3yu87hSWkuqIm-24" value="On submit, pop up thank you and &#xa;redirect to home" style="text;strokeColor=none;fillColor=none;spacingLeft=4;spacingRight=4;overflow=hidden;rotatable=0;points=[[0,0.5],[1,0.5]];portConstraint=eastwest;fontSize=12;" parent="v9sFLwM3yu87hSWkuqIm-19" vertex="1">
          <mxGeometry y="138" width="200" height="42" as="geometry" />
        </mxCell>
        <mxCell id="v9sFLwM3yu87hSWkuqIm-25" style="text;strokeColor=none;fillColor=none;spacingLeft=4;spacingRight=4;overflow=hidden;rotatable=0;points=[[0,0.5],[1,0.5]];portConstraint=eastwest;fontSize=12;" parent="v9sFLwM3yu87hSWkuqIm-19" vertex="1">
          <mxGeometry y="180" width="200" height="36" as="geometry" />
        </mxCell>
        <mxCell id="v9sFLwM3yu87hSWkuqIm-26" value="Tables" style="swimlane;fontStyle=0;childLayout=stackLayout;horizontal=1;startSize=26;horizontalStack=0;resizeParent=1;resizeParentMax=0;resizeLast=0;collapsible=1;marginBottom=0;align=center;fontSize=14;" parent="1" vertex="1">
          <mxGeometry x="635" y="272" width="160" height="176" as="geometry" />
        </mxCell>
        <mxCell id="v9sFLwM3yu87hSWkuqIm-27" value="Users" style="text;strokeColor=none;fillColor=none;spacingLeft=4;spacingRight=4;overflow=hidden;rotatable=0;points=[[0,0.5],[1,0.5]];portConstraint=eastwest;fontSize=12;" parent="v9sFLwM3yu87hSWkuqIm-26" vertex="1">
          <mxGeometry y="26" width="160" height="30" as="geometry" />
        </mxCell>
        <mxCell id="v9sFLwM3yu87hSWkuqIm-31" value="Template Options" style="text;strokeColor=none;fillColor=none;spacingLeft=4;spacingRight=4;overflow=hidden;rotatable=0;points=[[0,0.5],[1,0.5]];portConstraint=eastwest;fontSize=12;" parent="v9sFLwM3yu87hSWkuqIm-26" vertex="1">
          <mxGeometry y="56" width="160" height="30" as="geometry" />
        </mxCell>
        <mxCell id="v9sFLwM3yu87hSWkuqIm-28" value="Templates (Fill in word doc)" style="text;strokeColor=none;fillColor=none;spacingLeft=4;spacingRight=4;overflow=hidden;rotatable=0;points=[[0,0.5],[1,0.5]];portConstraint=eastwest;fontSize=12;" parent="v9sFLwM3yu87hSWkuqIm-26" vertex="1">
          <mxGeometry y="86" width="160" height="30" as="geometry" />
        </mxCell>
        <mxCell id="v9sFLwM3yu87hSWkuqIm-30" value="User Saved Forms/History" style="text;strokeColor=none;fillColor=none;spacingLeft=4;spacingRight=4;overflow=hidden;rotatable=0;points=[[0,0.5],[1,0.5]];portConstraint=eastwest;fontSize=12;" parent="v9sFLwM3yu87hSWkuqIm-26" vertex="1">
          <mxGeometry y="116" width="160" height="30" as="geometry" />
        </mxCell>
        <mxCell id="v9sFLwM3yu87hSWkuqIm-29" value="Tags" style="text;strokeColor=none;fillColor=none;spacingLeft=4;spacingRight=4;overflow=hidden;rotatable=0;points=[[0,0.5],[1,0.5]];portConstraint=eastwest;fontSize=12;" parent="v9sFLwM3yu87hSWkuqIm-26" vertex="1">
          <mxGeometry y="146" width="160" height="30" as="geometry" />
        </mxCell>
        <mxCell id="v9sFLwM3yu87hSWkuqIm-32" value="Template Routes" style="swimlane;fontStyle=0;childLayout=stackLayout;horizontal=1;startSize=26;horizontalStack=0;resizeParent=1;resizeParentMax=0;resizeLast=0;collapsible=1;marginBottom=0;align=center;fontSize=14;fontColor=default;fillColor=default;strokeColor=default;" parent="1" vertex="1">
          <mxGeometry x="345" y="290" width="185" height="270" as="geometry" />
        </mxCell>
        <mxCell id="v9sFLwM3yu87hSWkuqIm-33" value="&#39;/&#39;" style="text;strokeColor=none;fillColor=none;spacingLeft=4;spacingRight=4;overflow=hidden;rotatable=0;points=[[0,0.5],[1,0.5]];portConstraint=eastwest;fontSize=12;" parent="v9sFLwM3yu87hSWkuqIm-32" vertex="1">
          <mxGeometry y="26" width="185" height="30" as="geometry" />
        </mxCell>
        <mxCell id="v9sFLwM3yu87hSWkuqIm-34" value="/templates" style="text;strokeColor=none;fillColor=none;spacingLeft=4;spacingRight=4;overflow=hidden;rotatable=0;points=[[0,0.5],[1,0.5]];portConstraint=eastwest;fontSize=12;fontColor=default;" parent="v9sFLwM3yu87hSWkuqIm-32" vertex="1">
          <mxGeometry y="56" width="185" height="30" as="geometry" />
        </mxCell>
        <mxCell id="v9sFLwM3yu87hSWkuqIm-35" value="/templates/:template_id" style="text;strokeColor=none;fillColor=none;spacingLeft=4;spacingRight=4;overflow=hidden;rotatable=0;points=[[0,0.5],[1,0.5]];portConstraint=eastwest;fontSize=12;fontColor=default;" parent="v9sFLwM3yu87hSWkuqIm-32" vertex="1">
          <mxGeometry y="86" width="185" height="30" as="geometry" />
        </mxCell>
        <mxCell id="YNRykgnk4soWltR5KGJY-128" value="/templates/:template_id/options" style="text;strokeColor=none;fillColor=none;spacingLeft=4;spacingRight=4;overflow=hidden;rotatable=0;points=[[0,0.5],[1,0.5]];portConstraint=eastwest;fontSize=12;fontColor=default;" parent="v9sFLwM3yu87hSWkuqIm-32" vertex="1">
          <mxGeometry y="116" width="185" height="154" as="geometry" />
        </mxCell>
        <mxCell id="YNRykgnk4soWltR5KGJY-2" value="Users" style="shape=table;startSize=30;container=1;collapsible=1;childLayout=tableLayout;fixedRows=1;rowLines=0;fontStyle=1;align=center;resizeLast=1;fontSize=10;fontColor=default;strokeColor=default;fillColor=default;" parent="1" vertex="1">
          <mxGeometry x="870" y="210" width="180" height="160" as="geometry" />
        </mxCell>
        <mxCell id="YNRykgnk4soWltR5KGJY-3" value="" style="shape=partialRectangle;collapsible=0;dropTarget=0;pointerEvents=0;fillColor=none;top=0;left=0;bottom=1;right=0;points=[[0,0.5],[1,0.5]];portConstraint=eastwest;fontSize=10;fontColor=default;strokeColor=default;align=center;verticalAlign=middle;" parent="YNRykgnk4soWltR5KGJY-2" vertex="1">
          <mxGeometry y="30" width="180" height="30" as="geometry" />
        </mxCell>
        <mxCell id="YNRykgnk4soWltR5KGJY-4" value="id" style="shape=partialRectangle;connectable=0;fillColor=none;top=0;left=0;bottom=0;right=0;fontStyle=1;overflow=hidden;fontSize=10;fontColor=default;strokeColor=default;align=center;verticalAlign=middle;" parent="YNRykgnk4soWltR5KGJY-3" vertex="1">
          <mxGeometry width="30" height="30" as="geometry">
            <mxRectangle width="30" height="30" as="alternateBounds" />
          </mxGeometry>
        </mxCell>
        <mxCell id="YNRykgnk4soWltR5KGJY-5" value="username" style="shape=partialRectangle;connectable=0;fillColor=none;top=0;left=0;bottom=0;right=0;align=left;spacingLeft=6;fontStyle=5;overflow=hidden;fontSize=10;fontColor=default;strokeColor=default;" parent="YNRykgnk4soWltR5KGJY-3" vertex="1">
          <mxGeometry x="30" width="150" height="30" as="geometry">
            <mxRectangle width="150" height="30" as="alternateBounds" />
          </mxGeometry>
        </mxCell>
        <mxCell id="YNRykgnk4soWltR5KGJY-6" value="" style="shape=partialRectangle;collapsible=0;dropTarget=0;pointerEvents=0;fillColor=none;top=0;left=0;bottom=0;right=0;points=[[0,0.5],[1,0.5]];portConstraint=eastwest;fontSize=10;fontColor=default;strokeColor=default;align=center;verticalAlign=middle;" parent="YNRykgnk4soWltR5KGJY-2" vertex="1">
          <mxGeometry y="60" width="180" height="30" as="geometry" />
        </mxCell>
        <mxCell id="YNRykgnk4soWltR5KGJY-7" value="1" style="shape=partialRectangle;connectable=0;fillColor=none;top=0;left=0;bottom=0;right=0;editable=1;overflow=hidden;fontSize=10;fontColor=default;strokeColor=default;align=center;verticalAlign=middle;" parent="YNRykgnk4soWltR5KGJY-6" vertex="1">
          <mxGeometry width="30" height="30" as="geometry">
            <mxRectangle width="30" height="30" as="alternateBounds" />
          </mxGeometry>
        </mxCell>
        <mxCell id="YNRykgnk4soWltR5KGJY-8" value="floyd" style="shape=partialRectangle;connectable=0;fillColor=none;top=0;left=0;bottom=0;right=0;align=left;spacingLeft=6;overflow=hidden;fontSize=10;fontColor=default;strokeColor=default;" parent="YNRykgnk4soWltR5KGJY-6" vertex="1">
          <mxGeometry x="30" width="150" height="30" as="geometry">
            <mxRectangle width="150" height="30" as="alternateBounds" />
          </mxGeometry>
        </mxCell>
        <mxCell id="YNRykgnk4soWltR5KGJY-9" value="" style="shape=partialRectangle;collapsible=0;dropTarget=0;pointerEvents=0;fillColor=none;top=0;left=0;bottom=0;right=0;points=[[0,0.5],[1,0.5]];portConstraint=eastwest;fontSize=10;fontColor=default;strokeColor=default;align=center;verticalAlign=middle;" parent="YNRykgnk4soWltR5KGJY-2" vertex="1">
          <mxGeometry y="90" width="180" height="30" as="geometry" />
        </mxCell>
        <mxCell id="YNRykgnk4soWltR5KGJY-10" value="2" style="shape=partialRectangle;connectable=0;fillColor=none;top=0;left=0;bottom=0;right=0;editable=1;overflow=hidden;fontSize=10;fontColor=default;strokeColor=default;align=center;verticalAlign=middle;" parent="YNRykgnk4soWltR5KGJY-9" vertex="1">
          <mxGeometry width="30" height="30" as="geometry">
            <mxRectangle width="30" height="30" as="alternateBounds" />
          </mxGeometry>
        </mxCell>
        <mxCell id="YNRykgnk4soWltR5KGJY-11" value="dustin" style="shape=partialRectangle;connectable=0;fillColor=none;top=0;left=0;bottom=0;right=0;align=left;spacingLeft=6;overflow=hidden;fontSize=10;fontColor=default;strokeColor=default;" parent="YNRykgnk4soWltR5KGJY-9" vertex="1">
          <mxGeometry x="30" width="150" height="30" as="geometry">
            <mxRectangle width="150" height="30" as="alternateBounds" />
          </mxGeometry>
        </mxCell>
        <mxCell id="YNRykgnk4soWltR5KGJY-12" value="" style="shape=partialRectangle;collapsible=0;dropTarget=0;pointerEvents=0;fillColor=none;top=0;left=0;bottom=0;right=0;points=[[0,0.5],[1,0.5]];portConstraint=eastwest;fontSize=10;fontColor=default;strokeColor=default;align=center;verticalAlign=middle;" parent="YNRykgnk4soWltR5KGJY-2" vertex="1">
          <mxGeometry y="120" width="180" height="30" as="geometry" />
        </mxCell>
        <mxCell id="YNRykgnk4soWltR5KGJY-13" value="3" style="shape=partialRectangle;connectable=0;fillColor=none;top=0;left=0;bottom=0;right=0;editable=1;overflow=hidden;fontSize=10;fontColor=default;strokeColor=default;align=center;verticalAlign=middle;" parent="YNRykgnk4soWltR5KGJY-12" vertex="1">
          <mxGeometry width="30" height="30" as="geometry">
            <mxRectangle width="30" height="30" as="alternateBounds" />
          </mxGeometry>
        </mxCell>
        <mxCell id="YNRykgnk4soWltR5KGJY-14" value="stephen" style="shape=partialRectangle;connectable=0;fillColor=none;top=0;left=0;bottom=0;right=0;align=left;spacingLeft=6;overflow=hidden;fontSize=10;fontColor=default;strokeColor=default;" parent="YNRykgnk4soWltR5KGJY-12" vertex="1">
          <mxGeometry x="30" width="150" height="30" as="geometry">
            <mxRectangle width="150" height="30" as="alternateBounds" />
          </mxGeometry>
        </mxCell>
        <mxCell id="YNRykgnk4soWltR5KGJY-15" value="Templates" style="shape=table;startSize=30;container=1;collapsible=1;childLayout=tableLayout;fixedRows=1;rowLines=0;fontStyle=1;align=center;resizeLast=1;fontSize=10;fontColor=default;strokeColor=default;fillColor=default;" parent="1" vertex="1">
          <mxGeometry x="870" y="520" width="560" height="220" as="geometry" />
        </mxCell>
        <mxCell id="YNRykgnk4soWltR5KGJY-16" value="" style="shape=partialRectangle;collapsible=0;dropTarget=0;pointerEvents=0;fillColor=none;top=0;left=0;bottom=1;right=0;points=[[0,0.5],[1,0.5]];portConstraint=eastwest;fontSize=10;fontColor=default;strokeColor=default;align=center;verticalAlign=middle;" parent="YNRykgnk4soWltR5KGJY-15" vertex="1">
          <mxGeometry y="30" width="560" height="30" as="geometry" />
        </mxCell>
        <mxCell id="YNRykgnk4soWltR5KGJY-17" value="id" style="shape=partialRectangle;connectable=0;fillColor=none;top=0;left=0;bottom=0;right=0;fontStyle=1;overflow=hidden;fontSize=10;fontColor=default;strokeColor=default;align=center;verticalAlign=middle;" parent="YNRykgnk4soWltR5KGJY-16" vertex="1">
          <mxGeometry width="30" height="30" as="geometry">
            <mxRectangle width="30" height="30" as="alternateBounds" />
          </mxGeometry>
        </mxCell>
        <mxCell id="YNRykgnk4soWltR5KGJY-18" value="title" style="shape=partialRectangle;connectable=0;fillColor=none;top=0;left=0;bottom=0;right=0;align=left;spacingLeft=6;fontStyle=5;overflow=hidden;fontSize=10;fontColor=default;strokeColor=default;" parent="YNRykgnk4soWltR5KGJY-16" vertex="1">
          <mxGeometry x="30" width="150" height="30" as="geometry">
            <mxRectangle width="150" height="30" as="alternateBounds" />
          </mxGeometry>
        </mxCell>
        <mxCell id="YNRykgnk4soWltR5KGJY-101" value="Body" style="shape=partialRectangle;connectable=0;fillColor=none;top=0;left=0;bottom=0;right=0;align=left;spacingLeft=6;fontStyle=5;overflow=hidden;fontSize=10;fontColor=default;strokeColor=default;" parent="YNRykgnk4soWltR5KGJY-16" vertex="1">
          <mxGeometry x="180" width="380" height="30" as="geometry">
            <mxRectangle width="380" height="30" as="alternateBounds" />
          </mxGeometry>
        </mxCell>
        <mxCell id="YNRykgnk4soWltR5KGJY-19" value="" style="shape=partialRectangle;collapsible=0;dropTarget=0;pointerEvents=0;fillColor=none;top=0;left=0;bottom=0;right=0;points=[[0,0.5],[1,0.5]];portConstraint=eastwest;fontSize=10;fontColor=default;strokeColor=default;align=center;verticalAlign=middle;" parent="YNRykgnk4soWltR5KGJY-15" vertex="1">
          <mxGeometry y="60" width="560" height="30" as="geometry" />
        </mxCell>
        <mxCell id="YNRykgnk4soWltR5KGJY-20" value="1" style="shape=partialRectangle;connectable=0;fillColor=none;top=0;left=0;bottom=0;right=0;editable=1;overflow=hidden;fontSize=10;fontColor=default;strokeColor=default;align=center;verticalAlign=middle;" parent="YNRykgnk4soWltR5KGJY-19" vertex="1">
          <mxGeometry width="30" height="30" as="geometry">
            <mxRectangle width="30" height="30" as="alternateBounds" />
          </mxGeometry>
        </mxCell>
        <mxCell id="YNRykgnk4soWltR5KGJY-21" value="Happy Santa Letter" style="shape=partialRectangle;connectable=0;fillColor=none;top=0;left=0;bottom=0;right=0;align=left;spacingLeft=6;overflow=hidden;fontSize=10;fontColor=default;strokeColor=default;" parent="YNRykgnk4soWltR5KGJY-19" vertex="1">
          <mxGeometry x="30" width="150" height="30" as="geometry">
            <mxRectangle width="150" height="30" as="alternateBounds" />
          </mxGeometry>
        </mxCell>
        <mxCell id="YNRykgnk4soWltR5KGJY-102" value="Dear Santa, &lt;p&gt;My name is {NAME}, &lt;i&gt;I have been a {behavior} {gender}" style="shape=partialRectangle;connectable=0;fillColor=none;top=0;left=0;bottom=0;right=0;align=left;spacingLeft=6;overflow=hidden;fontSize=10;fontColor=default;strokeColor=default;" parent="YNRykgnk4soWltR5KGJY-19" vertex="1">
          <mxGeometry x="180" width="380" height="30" as="geometry">
            <mxRectangle width="380" height="30" as="alternateBounds" />
          </mxGeometry>
        </mxCell>
        <mxCell id="YNRykgnk4soWltR5KGJY-22" value="" style="shape=partialRectangle;collapsible=0;dropTarget=0;pointerEvents=0;fillColor=none;top=0;left=0;bottom=0;right=0;points=[[0,0.5],[1,0.5]];portConstraint=eastwest;fontSize=10;fontColor=default;strokeColor=default;align=center;verticalAlign=middle;" parent="YNRykgnk4soWltR5KGJY-15" vertex="1">
          <mxGeometry y="90" width="560" height="30" as="geometry" />
        </mxCell>
        <mxCell id="YNRykgnk4soWltR5KGJY-23" value="2" style="shape=partialRectangle;connectable=0;fillColor=none;top=0;left=0;bottom=0;right=0;editable=1;overflow=hidden;fontSize=10;fontColor=default;strokeColor=default;align=center;verticalAlign=middle;" parent="YNRykgnk4soWltR5KGJY-22" vertex="1">
          <mxGeometry width="30" height="30" as="geometry">
            <mxRectangle width="30" height="30" as="alternateBounds" />
          </mxGeometry>
        </mxCell>
        <mxCell id="YNRykgnk4soWltR5KGJY-24" value="Divorce Letter" style="shape=partialRectangle;connectable=0;fillColor=none;top=0;left=0;bottom=0;right=0;align=left;spacingLeft=6;overflow=hidden;fontSize=10;fontColor=default;strokeColor=default;" parent="YNRykgnk4soWltR5KGJY-22" vertex="1">
          <mxGeometry x="30" width="150" height="30" as="geometry">
            <mxRectangle width="150" height="30" as="alternateBounds" />
          </mxGeometry>
        </mxCell>
        <mxCell id="YNRykgnk4soWltR5KGJY-103" style="shape=partialRectangle;connectable=0;fillColor=none;top=0;left=0;bottom=0;right=0;align=left;spacingLeft=6;overflow=hidden;fontSize=10;fontColor=default;strokeColor=default;" parent="YNRykgnk4soWltR5KGJY-22" vertex="1">
          <mxGeometry x="180" width="380" height="30" as="geometry">
            <mxRectangle width="380" height="30" as="alternateBounds" />
          </mxGeometry>
        </mxCell>
        <mxCell id="YNRykgnk4soWltR5KGJY-25" value="" style="shape=partialRectangle;collapsible=0;dropTarget=0;pointerEvents=0;fillColor=none;top=0;left=0;bottom=0;right=0;points=[[0,0.5],[1,0.5]];portConstraint=eastwest;fontSize=10;fontColor=default;strokeColor=default;align=center;verticalAlign=middle;" parent="YNRykgnk4soWltR5KGJY-15" vertex="1">
          <mxGeometry y="120" width="560" height="30" as="geometry" />
        </mxCell>
        <mxCell id="YNRykgnk4soWltR5KGJY-26" value="3" style="shape=partialRectangle;connectable=0;fillColor=none;top=0;left=0;bottom=0;right=0;editable=1;overflow=hidden;fontSize=10;fontColor=default;strokeColor=default;align=center;verticalAlign=middle;" parent="YNRykgnk4soWltR5KGJY-25" vertex="1">
          <mxGeometry width="30" height="30" as="geometry">
            <mxRectangle width="30" height="30" as="alternateBounds" />
          </mxGeometry>
        </mxCell>
        <mxCell id="YNRykgnk4soWltR5KGJY-27" value="Power of Attorney" style="shape=partialRectangle;connectable=0;fillColor=none;top=0;left=0;bottom=0;right=0;align=left;spacingLeft=6;overflow=hidden;fontSize=10;fontColor=default;strokeColor=default;" parent="YNRykgnk4soWltR5KGJY-25" vertex="1">
          <mxGeometry x="30" width="150" height="30" as="geometry">
            <mxRectangle width="150" height="30" as="alternateBounds" />
          </mxGeometry>
        </mxCell>
        <mxCell id="YNRykgnk4soWltR5KGJY-104" style="shape=partialRectangle;connectable=0;fillColor=none;top=0;left=0;bottom=0;right=0;align=left;spacingLeft=6;overflow=hidden;fontSize=10;fontColor=default;strokeColor=default;" parent="YNRykgnk4soWltR5KGJY-25" vertex="1">
          <mxGeometry x="180" width="380" height="30" as="geometry">
            <mxRectangle width="380" height="30" as="alternateBounds" />
          </mxGeometry>
        </mxCell>
        <mxCell id="YNRykgnk4soWltR5KGJY-83" style="shape=partialRectangle;collapsible=0;dropTarget=0;pointerEvents=0;fillColor=none;top=0;left=0;bottom=0;right=0;points=[[0,0.5],[1,0.5]];portConstraint=eastwest;fontSize=10;fontColor=default;strokeColor=default;align=center;verticalAlign=middle;" parent="YNRykgnk4soWltR5KGJY-15" vertex="1">
          <mxGeometry y="150" width="560" height="30" as="geometry" />
        </mxCell>
        <mxCell id="YNRykgnk4soWltR5KGJY-84" value="4" style="shape=partialRectangle;connectable=0;fillColor=none;top=0;left=0;bottom=0;right=0;editable=1;overflow=hidden;fontSize=10;fontColor=default;strokeColor=default;align=center;verticalAlign=middle;" parent="YNRykgnk4soWltR5KGJY-83" vertex="1">
          <mxGeometry width="30" height="30" as="geometry">
            <mxRectangle width="30" height="30" as="alternateBounds" />
          </mxGeometry>
        </mxCell>
        <mxCell id="YNRykgnk4soWltR5KGJY-85" value="Angry Santa Letter" style="shape=partialRectangle;connectable=0;fillColor=none;top=0;left=0;bottom=0;right=0;align=left;spacingLeft=6;overflow=hidden;fontSize=10;fontColor=default;strokeColor=default;" parent="YNRykgnk4soWltR5KGJY-83" vertex="1">
          <mxGeometry x="30" width="150" height="30" as="geometry">
            <mxRectangle width="150" height="30" as="alternateBounds" />
          </mxGeometry>
        </mxCell>
        <mxCell id="YNRykgnk4soWltR5KGJY-105" style="shape=partialRectangle;connectable=0;fillColor=none;top=0;left=0;bottom=0;right=0;align=left;spacingLeft=6;overflow=hidden;fontSize=10;fontColor=default;strokeColor=default;" parent="YNRykgnk4soWltR5KGJY-83" vertex="1">
          <mxGeometry x="180" width="380" height="30" as="geometry">
            <mxRectangle width="380" height="30" as="alternateBounds" />
          </mxGeometry>
        </mxCell>
        <mxCell id="YNRykgnk4soWltR5KGJY-86" style="shape=partialRectangle;collapsible=0;dropTarget=0;pointerEvents=0;fillColor=none;top=0;left=0;bottom=0;right=0;points=[[0,0.5],[1,0.5]];portConstraint=eastwest;fontSize=10;fontColor=default;strokeColor=default;align=center;verticalAlign=middle;" parent="YNRykgnk4soWltR5KGJY-15" vertex="1">
          <mxGeometry y="180" width="560" height="30" as="geometry" />
        </mxCell>
        <mxCell id="YNRykgnk4soWltR5KGJY-87" value="5" style="shape=partialRectangle;connectable=0;fillColor=none;top=0;left=0;bottom=0;right=0;editable=1;overflow=hidden;fontSize=10;fontColor=default;strokeColor=default;align=center;verticalAlign=middle;" parent="YNRykgnk4soWltR5KGJY-86" vertex="1">
          <mxGeometry width="30" height="30" as="geometry">
            <mxRectangle width="30" height="30" as="alternateBounds" />
          </mxGeometry>
        </mxCell>
        <mxCell id="YNRykgnk4soWltR5KGJY-88" value="Breakup Letter" style="shape=partialRectangle;connectable=0;fillColor=none;top=0;left=0;bottom=0;right=0;align=left;spacingLeft=6;overflow=hidden;fontSize=10;fontColor=default;strokeColor=default;" parent="YNRykgnk4soWltR5KGJY-86" vertex="1">
          <mxGeometry x="30" width="150" height="30" as="geometry">
            <mxRectangle width="150" height="30" as="alternateBounds" />
          </mxGeometry>
        </mxCell>
        <mxCell id="YNRykgnk4soWltR5KGJY-106" style="shape=partialRectangle;connectable=0;fillColor=none;top=0;left=0;bottom=0;right=0;align=left;spacingLeft=6;overflow=hidden;fontSize=10;fontColor=default;strokeColor=default;" parent="YNRykgnk4soWltR5KGJY-86" vertex="1">
          <mxGeometry x="180" width="380" height="30" as="geometry">
            <mxRectangle width="380" height="30" as="alternateBounds" />
          </mxGeometry>
        </mxCell>
        <mxCell id="YNRykgnk4soWltR5KGJY-28" value="Template Options" style="shape=table;startSize=30;container=1;collapsible=1;childLayout=tableLayout;fixedRows=1;rowLines=0;fontStyle=1;align=center;resizeLast=1;fontSize=10;fontColor=default;strokeColor=default;fillColor=default;" parent="1" vertex="1">
          <mxGeometry x="1540" y="790" width="480" height="190" as="geometry" />
        </mxCell>
        <mxCell id="YNRykgnk4soWltR5KGJY-29" value="" style="shape=partialRectangle;collapsible=0;dropTarget=0;pointerEvents=0;fillColor=none;top=0;left=0;bottom=1;right=0;points=[[0,0.5],[1,0.5]];portConstraint=eastwest;fontSize=10;fontColor=default;strokeColor=default;align=center;verticalAlign=middle;" parent="YNRykgnk4soWltR5KGJY-28" vertex="1">
          <mxGeometry y="30" width="480" height="30" as="geometry" />
        </mxCell>
        <mxCell id="YNRykgnk4soWltR5KGJY-30" value="id" style="shape=partialRectangle;connectable=0;fillColor=none;top=0;left=0;bottom=0;right=0;fontStyle=1;overflow=hidden;fontSize=10;fontColor=default;strokeColor=default;align=center;verticalAlign=middle;" parent="YNRykgnk4soWltR5KGJY-29" vertex="1">
          <mxGeometry width="30" height="30" as="geometry">
            <mxRectangle width="30" height="30" as="alternateBounds" />
          </mxGeometry>
        </mxCell>
        <mxCell id="YNRykgnk4soWltR5KGJY-31" value="template_id" style="shape=partialRectangle;connectable=0;fillColor=none;top=0;left=0;bottom=0;right=0;align=left;spacingLeft=6;fontStyle=5;overflow=hidden;fontSize=10;fontColor=default;strokeColor=default;" parent="YNRykgnk4soWltR5KGJY-29" vertex="1">
          <mxGeometry x="30" width="150" height="30" as="geometry">
            <mxRectangle width="150" height="30" as="alternateBounds" />
          </mxGeometry>
        </mxCell>
        <mxCell id="YNRykgnk4soWltR5KGJY-107" value="option_id" style="shape=partialRectangle;connectable=0;fillColor=none;top=0;left=0;bottom=0;right=0;align=left;spacingLeft=6;fontStyle=5;overflow=hidden;fontSize=10;fontColor=default;strokeColor=default;" parent="YNRykgnk4soWltR5KGJY-29" vertex="1">
          <mxGeometry x="180" width="160" height="30" as="geometry">
            <mxRectangle width="160" height="30" as="alternateBounds" />
          </mxGeometry>
        </mxCell>
        <mxCell id="YNRykgnk4soWltR5KGJY-111" value="option_text" style="shape=partialRectangle;connectable=0;fillColor=none;top=0;left=0;bottom=0;right=0;align=left;spacingLeft=6;fontStyle=5;overflow=hidden;fontSize=10;fontColor=default;strokeColor=default;" parent="YNRykgnk4soWltR5KGJY-29" vertex="1">
          <mxGeometry x="340" width="140" height="30" as="geometry">
            <mxRectangle width="140" height="30" as="alternateBounds" />
          </mxGeometry>
        </mxCell>
        <mxCell id="YNRykgnk4soWltR5KGJY-32" value="" style="shape=partialRectangle;collapsible=0;dropTarget=0;pointerEvents=0;fillColor=none;top=0;left=0;bottom=0;right=0;points=[[0,0.5],[1,0.5]];portConstraint=eastwest;fontSize=10;fontColor=default;strokeColor=default;align=center;verticalAlign=middle;" parent="YNRykgnk4soWltR5KGJY-28" vertex="1">
          <mxGeometry y="60" width="480" height="30" as="geometry" />
        </mxCell>
        <mxCell id="YNRykgnk4soWltR5KGJY-33" value="1" style="shape=partialRectangle;connectable=0;fillColor=none;top=0;left=0;bottom=0;right=0;editable=1;overflow=hidden;fontSize=10;fontColor=default;strokeColor=default;align=center;verticalAlign=middle;" parent="YNRykgnk4soWltR5KGJY-32" vertex="1">
          <mxGeometry width="30" height="30" as="geometry">
            <mxRectangle width="30" height="30" as="alternateBounds" />
          </mxGeometry>
        </mxCell>
        <mxCell id="YNRykgnk4soWltR5KGJY-34" value="1" style="shape=partialRectangle;connectable=0;fillColor=none;top=0;left=0;bottom=0;right=0;align=left;spacingLeft=6;overflow=hidden;fontSize=10;fontColor=default;strokeColor=default;" parent="YNRykgnk4soWltR5KGJY-32" vertex="1">
          <mxGeometry x="30" width="150" height="30" as="geometry">
            <mxRectangle width="150" height="30" as="alternateBounds" />
          </mxGeometry>
        </mxCell>
        <mxCell id="YNRykgnk4soWltR5KGJY-108" value="behavior" style="shape=partialRectangle;connectable=0;fillColor=none;top=0;left=0;bottom=0;right=0;align=left;spacingLeft=6;overflow=hidden;fontSize=10;fontColor=default;strokeColor=default;" parent="YNRykgnk4soWltR5KGJY-32" vertex="1">
          <mxGeometry x="180" width="160" height="30" as="geometry">
            <mxRectangle width="160" height="30" as="alternateBounds" />
          </mxGeometry>
        </mxCell>
        <mxCell id="YNRykgnk4soWltR5KGJY-112" value="good" style="shape=partialRectangle;connectable=0;fillColor=none;top=0;left=0;bottom=0;right=0;align=left;spacingLeft=6;overflow=hidden;fontSize=10;fontColor=default;strokeColor=default;" parent="YNRykgnk4soWltR5KGJY-32" vertex="1">
          <mxGeometry x="340" width="140" height="30" as="geometry">
            <mxRectangle width="140" height="30" as="alternateBounds" />
          </mxGeometry>
        </mxCell>
        <mxCell id="YNRykgnk4soWltR5KGJY-35" value="" style="shape=partialRectangle;collapsible=0;dropTarget=0;pointerEvents=0;fillColor=none;top=0;left=0;bottom=0;right=0;points=[[0,0.5],[1,0.5]];portConstraint=eastwest;fontSize=10;fontColor=default;strokeColor=default;align=center;verticalAlign=middle;" parent="YNRykgnk4soWltR5KGJY-28" vertex="1">
          <mxGeometry y="90" width="480" height="30" as="geometry" />
        </mxCell>
        <mxCell id="YNRykgnk4soWltR5KGJY-36" value="2" style="shape=partialRectangle;connectable=0;fillColor=none;top=0;left=0;bottom=0;right=0;editable=1;overflow=hidden;fontSize=10;fontColor=default;strokeColor=default;align=center;verticalAlign=middle;" parent="YNRykgnk4soWltR5KGJY-35" vertex="1">
          <mxGeometry width="30" height="30" as="geometry">
            <mxRectangle width="30" height="30" as="alternateBounds" />
          </mxGeometry>
        </mxCell>
        <mxCell id="YNRykgnk4soWltR5KGJY-37" value="1" style="shape=partialRectangle;connectable=0;fillColor=none;top=0;left=0;bottom=0;right=0;align=left;spacingLeft=6;overflow=hidden;fontSize=10;fontColor=default;strokeColor=default;" parent="YNRykgnk4soWltR5KGJY-35" vertex="1">
          <mxGeometry x="30" width="150" height="30" as="geometry">
            <mxRectangle width="150" height="30" as="alternateBounds" />
          </mxGeometry>
        </mxCell>
        <mxCell id="YNRykgnk4soWltR5KGJY-109" value="behavior" style="shape=partialRectangle;connectable=0;fillColor=none;top=0;left=0;bottom=0;right=0;align=left;spacingLeft=6;overflow=hidden;fontSize=10;fontColor=default;strokeColor=default;" parent="YNRykgnk4soWltR5KGJY-35" vertex="1">
          <mxGeometry x="180" width="160" height="30" as="geometry">
            <mxRectangle width="160" height="30" as="alternateBounds" />
          </mxGeometry>
        </mxCell>
        <mxCell id="YNRykgnk4soWltR5KGJY-113" value="naughty" style="shape=partialRectangle;connectable=0;fillColor=none;top=0;left=0;bottom=0;right=0;align=left;spacingLeft=6;overflow=hidden;fontSize=10;fontColor=default;strokeColor=default;" parent="YNRykgnk4soWltR5KGJY-35" vertex="1">
          <mxGeometry x="340" width="140" height="30" as="geometry">
            <mxRectangle width="140" height="30" as="alternateBounds" />
          </mxGeometry>
        </mxCell>
        <mxCell id="YNRykgnk4soWltR5KGJY-38" value="" style="shape=partialRectangle;collapsible=0;dropTarget=0;pointerEvents=0;fillColor=none;top=0;left=0;bottom=0;right=0;points=[[0,0.5],[1,0.5]];portConstraint=eastwest;fontSize=10;fontColor=default;strokeColor=default;align=center;verticalAlign=middle;" parent="YNRykgnk4soWltR5KGJY-28" vertex="1">
          <mxGeometry y="120" width="480" height="30" as="geometry" />
        </mxCell>
        <mxCell id="YNRykgnk4soWltR5KGJY-39" value="3" style="shape=partialRectangle;connectable=0;fillColor=none;top=0;left=0;bottom=0;right=0;editable=1;overflow=hidden;fontSize=10;fontColor=default;strokeColor=default;align=center;verticalAlign=middle;" parent="YNRykgnk4soWltR5KGJY-38" vertex="1">
          <mxGeometry width="30" height="30" as="geometry">
            <mxRectangle width="30" height="30" as="alternateBounds" />
          </mxGeometry>
        </mxCell>
        <mxCell id="YNRykgnk4soWltR5KGJY-40" value="1" style="shape=partialRectangle;connectable=0;fillColor=none;top=0;left=0;bottom=0;right=0;align=left;spacingLeft=6;overflow=hidden;fontSize=10;fontColor=default;strokeColor=default;" parent="YNRykgnk4soWltR5KGJY-38" vertex="1">
          <mxGeometry x="30" width="150" height="30" as="geometry">
            <mxRectangle width="150" height="30" as="alternateBounds" />
          </mxGeometry>
        </mxCell>
        <mxCell id="YNRykgnk4soWltR5KGJY-110" value="gender" style="shape=partialRectangle;connectable=0;fillColor=none;top=0;left=0;bottom=0;right=0;align=left;spacingLeft=6;overflow=hidden;fontSize=10;fontColor=default;strokeColor=default;" parent="YNRykgnk4soWltR5KGJY-38" vertex="1">
          <mxGeometry x="180" width="160" height="30" as="geometry">
            <mxRectangle width="160" height="30" as="alternateBounds" />
          </mxGeometry>
        </mxCell>
        <mxCell id="YNRykgnk4soWltR5KGJY-114" value="boy" style="shape=partialRectangle;connectable=0;fillColor=none;top=0;left=0;bottom=0;right=0;align=left;spacingLeft=6;overflow=hidden;fontSize=10;fontColor=default;strokeColor=default;" parent="YNRykgnk4soWltR5KGJY-38" vertex="1">
          <mxGeometry x="340" width="140" height="30" as="geometry">
            <mxRectangle width="140" height="30" as="alternateBounds" />
          </mxGeometry>
        </mxCell>
        <mxCell id="YNRykgnk4soWltR5KGJY-115" style="shape=partialRectangle;collapsible=0;dropTarget=0;pointerEvents=0;fillColor=none;top=0;left=0;bottom=0;right=0;points=[[0,0.5],[1,0.5]];portConstraint=eastwest;fontSize=10;fontColor=default;strokeColor=default;align=center;verticalAlign=middle;" parent="YNRykgnk4soWltR5KGJY-28" vertex="1">
          <mxGeometry y="150" width="480" height="30" as="geometry" />
        </mxCell>
        <mxCell id="YNRykgnk4soWltR5KGJY-116" value="4" style="shape=partialRectangle;connectable=0;fillColor=none;top=0;left=0;bottom=0;right=0;editable=1;overflow=hidden;fontSize=10;fontColor=default;strokeColor=default;align=center;verticalAlign=middle;" parent="YNRykgnk4soWltR5KGJY-115" vertex="1">
          <mxGeometry width="30" height="30" as="geometry">
            <mxRectangle width="30" height="30" as="alternateBounds" />
          </mxGeometry>
        </mxCell>
        <mxCell id="YNRykgnk4soWltR5KGJY-117" value="1" style="shape=partialRectangle;connectable=0;fillColor=none;top=0;left=0;bottom=0;right=0;align=left;spacingLeft=6;overflow=hidden;fontSize=10;fontColor=default;strokeColor=default;" parent="YNRykgnk4soWltR5KGJY-115" vertex="1">
          <mxGeometry x="30" width="150" height="30" as="geometry">
            <mxRectangle width="150" height="30" as="alternateBounds" />
          </mxGeometry>
        </mxCell>
        <mxCell id="YNRykgnk4soWltR5KGJY-118" value="gender" style="shape=partialRectangle;connectable=0;fillColor=none;top=0;left=0;bottom=0;right=0;align=left;spacingLeft=6;overflow=hidden;fontSize=10;fontColor=default;strokeColor=default;" parent="YNRykgnk4soWltR5KGJY-115" vertex="1">
          <mxGeometry x="180" width="160" height="30" as="geometry">
            <mxRectangle width="160" height="30" as="alternateBounds" />
          </mxGeometry>
        </mxCell>
        <mxCell id="YNRykgnk4soWltR5KGJY-119" value="girl" style="shape=partialRectangle;connectable=0;fillColor=none;top=0;left=0;bottom=0;right=0;align=left;spacingLeft=6;overflow=hidden;fontSize=10;fontColor=default;strokeColor=default;" parent="YNRykgnk4soWltR5KGJY-115" vertex="1">
          <mxGeometry x="340" width="140" height="30" as="geometry">
            <mxRectangle width="140" height="30" as="alternateBounds" />
          </mxGeometry>
        </mxCell>
        <mxCell id="YNRykgnk4soWltR5KGJY-41" value="User Forms" style="shape=table;startSize=30;container=1;collapsible=1;childLayout=tableLayout;fixedRows=1;rowLines=0;fontStyle=1;align=center;resizeLast=1;fontSize=10;fontColor=default;strokeColor=default;fillColor=default;" parent="1" vertex="1">
          <mxGeometry x="1160" y="200" width="590" height="160" as="geometry" />
        </mxCell>
        <mxCell id="YNRykgnk4soWltR5KGJY-42" value="" style="shape=partialRectangle;collapsible=0;dropTarget=0;pointerEvents=0;fillColor=none;top=0;left=0;bottom=1;right=0;points=[[0,0.5],[1,0.5]];portConstraint=eastwest;fontSize=10;fontColor=default;strokeColor=default;align=center;verticalAlign=middle;" parent="YNRykgnk4soWltR5KGJY-41" vertex="1">
          <mxGeometry y="30" width="590" height="30" as="geometry" />
        </mxCell>
        <mxCell id="YNRykgnk4soWltR5KGJY-43" value="id" style="shape=partialRectangle;connectable=0;fillColor=none;top=0;left=0;bottom=0;right=0;fontStyle=1;overflow=hidden;fontSize=10;fontColor=default;strokeColor=default;align=center;verticalAlign=middle;" parent="YNRykgnk4soWltR5KGJY-42" vertex="1">
          <mxGeometry width="30" height="30" as="geometry">
            <mxRectangle width="30" height="30" as="alternateBounds" />
          </mxGeometry>
        </mxCell>
        <mxCell id="YNRykgnk4soWltR5KGJY-44" value="user_id" style="shape=partialRectangle;connectable=0;fillColor=none;top=0;left=0;bottom=0;right=0;align=left;spacingLeft=6;fontStyle=5;overflow=hidden;fontSize=10;fontColor=default;strokeColor=default;" parent="YNRykgnk4soWltR5KGJY-42" vertex="1">
          <mxGeometry x="30" width="150" height="30" as="geometry">
            <mxRectangle width="150" height="30" as="alternateBounds" />
          </mxGeometry>
        </mxCell>
        <mxCell id="YNRykgnk4soWltR5KGJY-67" value="template_id" style="shape=partialRectangle;connectable=0;fillColor=none;top=0;left=0;bottom=0;right=0;align=left;spacingLeft=6;fontStyle=5;overflow=hidden;fontSize=10;fontColor=default;strokeColor=default;" parent="YNRykgnk4soWltR5KGJY-42" vertex="1">
          <mxGeometry x="180" width="150" height="30" as="geometry">
            <mxRectangle width="150" height="30" as="alternateBounds" />
          </mxGeometry>
        </mxCell>
        <mxCell id="YNRykgnk4soWltR5KGJY-122" value="serialized_options" style="shape=partialRectangle;connectable=0;fillColor=none;top=0;left=0;bottom=0;right=0;align=left;spacingLeft=6;fontStyle=5;overflow=hidden;fontSize=10;fontColor=default;strokeColor=default;" parent="YNRykgnk4soWltR5KGJY-42" vertex="1">
          <mxGeometry x="330" width="260" height="30" as="geometry">
            <mxRectangle width="260" height="30" as="alternateBounds" />
          </mxGeometry>
        </mxCell>
        <mxCell id="YNRykgnk4soWltR5KGJY-45" value="" style="shape=partialRectangle;collapsible=0;dropTarget=0;pointerEvents=0;fillColor=none;top=0;left=0;bottom=0;right=0;points=[[0,0.5],[1,0.5]];portConstraint=eastwest;fontSize=10;fontColor=default;strokeColor=default;align=center;verticalAlign=middle;" parent="YNRykgnk4soWltR5KGJY-41" vertex="1">
          <mxGeometry y="60" width="590" height="30" as="geometry" />
        </mxCell>
        <mxCell id="YNRykgnk4soWltR5KGJY-46" value="1" style="shape=partialRectangle;connectable=0;fillColor=none;top=0;left=0;bottom=0;right=0;editable=1;overflow=hidden;fontSize=10;fontColor=default;strokeColor=default;align=center;verticalAlign=middle;" parent="YNRykgnk4soWltR5KGJY-45" vertex="1">
          <mxGeometry width="30" height="30" as="geometry">
            <mxRectangle width="30" height="30" as="alternateBounds" />
          </mxGeometry>
        </mxCell>
        <mxCell id="YNRykgnk4soWltR5KGJY-47" value="1" style="shape=partialRectangle;connectable=0;fillColor=none;top=0;left=0;bottom=0;right=0;align=left;spacingLeft=6;overflow=hidden;fontSize=10;fontColor=default;strokeColor=default;" parent="YNRykgnk4soWltR5KGJY-45" vertex="1">
          <mxGeometry x="30" width="150" height="30" as="geometry">
            <mxRectangle width="150" height="30" as="alternateBounds" />
          </mxGeometry>
        </mxCell>
        <mxCell id="YNRykgnk4soWltR5KGJY-68" value="1" style="shape=partialRectangle;connectable=0;fillColor=none;top=0;left=0;bottom=0;right=0;align=left;spacingLeft=6;overflow=hidden;fontSize=10;fontColor=default;strokeColor=default;" parent="YNRykgnk4soWltR5KGJY-45" vertex="1">
          <mxGeometry x="180" width="150" height="30" as="geometry">
            <mxRectangle width="150" height="30" as="alternateBounds" />
          </mxGeometry>
        </mxCell>
        <mxCell id="YNRykgnk4soWltR5KGJY-123" value="{name: timmy, behavior: good, gender: boy}" style="shape=partialRectangle;connectable=0;fillColor=none;top=0;left=0;bottom=0;right=0;align=left;spacingLeft=6;overflow=hidden;fontSize=10;fontColor=default;strokeColor=default;" parent="YNRykgnk4soWltR5KGJY-45" vertex="1">
          <mxGeometry x="330" width="260" height="30" as="geometry">
            <mxRectangle width="260" height="30" as="alternateBounds" />
          </mxGeometry>
        </mxCell>
        <mxCell id="YNRykgnk4soWltR5KGJY-48" value="" style="shape=partialRectangle;collapsible=0;dropTarget=0;pointerEvents=0;fillColor=none;top=0;left=0;bottom=0;right=0;points=[[0,0.5],[1,0.5]];portConstraint=eastwest;fontSize=10;fontColor=default;strokeColor=default;align=center;verticalAlign=middle;" parent="YNRykgnk4soWltR5KGJY-41" vertex="1">
          <mxGeometry y="90" width="590" height="30" as="geometry" />
        </mxCell>
        <mxCell id="YNRykgnk4soWltR5KGJY-49" value="2" style="shape=partialRectangle;connectable=0;fillColor=none;top=0;left=0;bottom=0;right=0;editable=1;overflow=hidden;fontSize=10;fontColor=default;strokeColor=default;align=center;verticalAlign=middle;" parent="YNRykgnk4soWltR5KGJY-48" vertex="1">
          <mxGeometry width="30" height="30" as="geometry">
            <mxRectangle width="30" height="30" as="alternateBounds" />
          </mxGeometry>
        </mxCell>
        <mxCell id="YNRykgnk4soWltR5KGJY-50" value="1" style="shape=partialRectangle;connectable=0;fillColor=none;top=0;left=0;bottom=0;right=0;align=left;spacingLeft=6;overflow=hidden;fontSize=10;fontColor=default;strokeColor=default;" parent="YNRykgnk4soWltR5KGJY-48" vertex="1">
          <mxGeometry x="30" width="150" height="30" as="geometry">
            <mxRectangle width="150" height="30" as="alternateBounds" />
          </mxGeometry>
        </mxCell>
        <mxCell id="YNRykgnk4soWltR5KGJY-69" style="shape=partialRectangle;connectable=0;fillColor=none;top=0;left=0;bottom=0;right=0;align=left;spacingLeft=6;overflow=hidden;fontSize=10;fontColor=default;strokeColor=default;" parent="YNRykgnk4soWltR5KGJY-48" vertex="1">
          <mxGeometry x="180" width="150" height="30" as="geometry">
            <mxRectangle width="150" height="30" as="alternateBounds" />
          </mxGeometry>
        </mxCell>
        <mxCell id="YNRykgnk4soWltR5KGJY-124" style="shape=partialRectangle;connectable=0;fillColor=none;top=0;left=0;bottom=0;right=0;align=left;spacingLeft=6;overflow=hidden;fontSize=10;fontColor=default;strokeColor=default;" parent="YNRykgnk4soWltR5KGJY-48" vertex="1">
          <mxGeometry x="330" width="260" height="30" as="geometry">
            <mxRectangle width="260" height="30" as="alternateBounds" />
          </mxGeometry>
        </mxCell>
        <mxCell id="YNRykgnk4soWltR5KGJY-51" value="" style="shape=partialRectangle;collapsible=0;dropTarget=0;pointerEvents=0;fillColor=none;top=0;left=0;bottom=0;right=0;points=[[0,0.5],[1,0.5]];portConstraint=eastwest;fontSize=10;fontColor=default;strokeColor=default;align=center;verticalAlign=middle;" parent="YNRykgnk4soWltR5KGJY-41" vertex="1">
          <mxGeometry y="120" width="590" height="30" as="geometry" />
        </mxCell>
        <mxCell id="YNRykgnk4soWltR5KGJY-52" value="3" style="shape=partialRectangle;connectable=0;fillColor=none;top=0;left=0;bottom=0;right=0;editable=1;overflow=hidden;fontSize=10;fontColor=default;strokeColor=default;align=center;verticalAlign=middle;" parent="YNRykgnk4soWltR5KGJY-51" vertex="1">
          <mxGeometry width="30" height="30" as="geometry">
            <mxRectangle width="30" height="30" as="alternateBounds" />
          </mxGeometry>
        </mxCell>
        <mxCell id="YNRykgnk4soWltR5KGJY-53" value="1" style="shape=partialRectangle;connectable=0;fillColor=none;top=0;left=0;bottom=0;right=0;align=left;spacingLeft=6;overflow=hidden;fontSize=10;fontColor=default;strokeColor=default;" parent="YNRykgnk4soWltR5KGJY-51" vertex="1">
          <mxGeometry x="30" width="150" height="30" as="geometry">
            <mxRectangle width="150" height="30" as="alternateBounds" />
          </mxGeometry>
        </mxCell>
        <mxCell id="YNRykgnk4soWltR5KGJY-70" style="shape=partialRectangle;connectable=0;fillColor=none;top=0;left=0;bottom=0;right=0;align=left;spacingLeft=6;overflow=hidden;fontSize=10;fontColor=default;strokeColor=default;" parent="YNRykgnk4soWltR5KGJY-51" vertex="1">
          <mxGeometry x="180" width="150" height="30" as="geometry">
            <mxRectangle width="150" height="30" as="alternateBounds" />
          </mxGeometry>
        </mxCell>
        <mxCell id="YNRykgnk4soWltR5KGJY-125" style="shape=partialRectangle;connectable=0;fillColor=none;top=0;left=0;bottom=0;right=0;align=left;spacingLeft=6;overflow=hidden;fontSize=10;fontColor=default;strokeColor=default;" parent="YNRykgnk4soWltR5KGJY-51" vertex="1">
          <mxGeometry x="330" width="260" height="30" as="geometry">
            <mxRectangle width="260" height="30" as="alternateBounds" />
          </mxGeometry>
        </mxCell>
        <mxCell id="YNRykgnk4soWltR5KGJY-54" value="Tags" style="shape=table;startSize=30;container=1;collapsible=1;childLayout=tableLayout;fixedRows=1;rowLines=0;fontStyle=1;align=center;resizeLast=1;fontSize=10;fontColor=default;strokeColor=default;fillColor=default;" parent="1" vertex="1">
          <mxGeometry x="1540" y="448" width="330" height="310" as="geometry" />
        </mxCell>
        <mxCell id="YNRykgnk4soWltR5KGJY-55" value="" style="shape=partialRectangle;collapsible=0;dropTarget=0;pointerEvents=0;fillColor=none;top=0;left=0;bottom=1;right=0;points=[[0,0.5],[1,0.5]];portConstraint=eastwest;fontSize=10;fontColor=default;strokeColor=default;align=center;verticalAlign=middle;" parent="YNRykgnk4soWltR5KGJY-54" vertex="1">
          <mxGeometry y="30" width="330" height="30" as="geometry" />
        </mxCell>
        <mxCell id="YNRykgnk4soWltR5KGJY-56" value="id" style="shape=partialRectangle;connectable=0;fillColor=none;top=0;left=0;bottom=0;right=0;fontStyle=1;overflow=hidden;fontSize=10;fontColor=default;strokeColor=default;align=center;verticalAlign=middle;" parent="YNRykgnk4soWltR5KGJY-55" vertex="1">
          <mxGeometry width="30" height="30" as="geometry">
            <mxRectangle width="30" height="30" as="alternateBounds" />
          </mxGeometry>
        </mxCell>
        <mxCell id="YNRykgnk4soWltR5KGJY-57" value="template_id" style="shape=partialRectangle;connectable=0;fillColor=none;top=0;left=0;bottom=0;right=0;align=left;spacingLeft=6;fontStyle=5;overflow=hidden;fontSize=10;fontColor=default;strokeColor=default;" parent="YNRykgnk4soWltR5KGJY-55" vertex="1">
          <mxGeometry x="30" width="150" height="30" as="geometry">
            <mxRectangle width="150" height="30" as="alternateBounds" />
          </mxGeometry>
        </mxCell>
        <mxCell id="YNRykgnk4soWltR5KGJY-71" value="tag" style="shape=partialRectangle;connectable=0;fillColor=none;top=0;left=0;bottom=0;right=0;align=left;spacingLeft=6;fontStyle=5;overflow=hidden;fontSize=10;fontColor=default;strokeColor=default;" parent="YNRykgnk4soWltR5KGJY-55" vertex="1">
          <mxGeometry x="180" width="150" height="30" as="geometry">
            <mxRectangle width="150" height="30" as="alternateBounds" />
          </mxGeometry>
        </mxCell>
        <mxCell id="YNRykgnk4soWltR5KGJY-58" value="" style="shape=partialRectangle;collapsible=0;dropTarget=0;pointerEvents=0;fillColor=none;top=0;left=0;bottom=0;right=0;points=[[0,0.5],[1,0.5]];portConstraint=eastwest;fontSize=10;fontColor=default;strokeColor=default;align=center;verticalAlign=middle;" parent="YNRykgnk4soWltR5KGJY-54" vertex="1">
          <mxGeometry y="60" width="330" height="30" as="geometry" />
        </mxCell>
        <mxCell id="YNRykgnk4soWltR5KGJY-59" value="1" style="shape=partialRectangle;connectable=0;fillColor=none;top=0;left=0;bottom=0;right=0;editable=1;overflow=hidden;fontSize=10;fontColor=default;strokeColor=default;align=center;verticalAlign=middle;" parent="YNRykgnk4soWltR5KGJY-58" vertex="1">
          <mxGeometry width="30" height="30" as="geometry">
            <mxRectangle width="30" height="30" as="alternateBounds" />
          </mxGeometry>
        </mxCell>
        <mxCell id="YNRykgnk4soWltR5KGJY-60" value="1" style="shape=partialRectangle;connectable=0;fillColor=none;top=0;left=0;bottom=0;right=0;align=left;spacingLeft=6;overflow=hidden;fontSize=10;fontColor=default;strokeColor=default;" parent="YNRykgnk4soWltR5KGJY-58" vertex="1">
          <mxGeometry x="30" width="150" height="30" as="geometry">
            <mxRectangle width="150" height="30" as="alternateBounds" />
          </mxGeometry>
        </mxCell>
        <mxCell id="YNRykgnk4soWltR5KGJY-72" value="christmas" style="shape=partialRectangle;connectable=0;fillColor=none;top=0;left=0;bottom=0;right=0;align=left;spacingLeft=6;overflow=hidden;fontSize=10;fontColor=default;strokeColor=default;" parent="YNRykgnk4soWltR5KGJY-58" vertex="1">
          <mxGeometry x="180" width="150" height="30" as="geometry">
            <mxRectangle width="150" height="30" as="alternateBounds" />
          </mxGeometry>
        </mxCell>
        <mxCell id="YNRykgnk4soWltR5KGJY-61" value="" style="shape=partialRectangle;collapsible=0;dropTarget=0;pointerEvents=0;fillColor=none;top=0;left=0;bottom=0;right=0;points=[[0,0.5],[1,0.5]];portConstraint=eastwest;fontSize=10;fontColor=default;strokeColor=default;align=center;verticalAlign=middle;" parent="YNRykgnk4soWltR5KGJY-54" vertex="1">
          <mxGeometry y="90" width="330" height="30" as="geometry" />
        </mxCell>
        <mxCell id="YNRykgnk4soWltR5KGJY-62" value="2" style="shape=partialRectangle;connectable=0;fillColor=none;top=0;left=0;bottom=0;right=0;editable=1;overflow=hidden;fontSize=10;fontColor=default;strokeColor=default;align=center;verticalAlign=middle;" parent="YNRykgnk4soWltR5KGJY-61" vertex="1">
          <mxGeometry width="30" height="30" as="geometry">
            <mxRectangle width="30" height="30" as="alternateBounds" />
          </mxGeometry>
        </mxCell>
        <mxCell id="YNRykgnk4soWltR5KGJY-63" value="1" style="shape=partialRectangle;connectable=0;fillColor=none;top=0;left=0;bottom=0;right=0;align=left;spacingLeft=6;overflow=hidden;fontSize=10;fontColor=default;strokeColor=default;" parent="YNRykgnk4soWltR5KGJY-61" vertex="1">
          <mxGeometry x="30" width="150" height="30" as="geometry">
            <mxRectangle width="150" height="30" as="alternateBounds" />
          </mxGeometry>
        </mxCell>
        <mxCell id="YNRykgnk4soWltR5KGJY-73" value="santa" style="shape=partialRectangle;connectable=0;fillColor=none;top=0;left=0;bottom=0;right=0;align=left;spacingLeft=6;overflow=hidden;fontSize=10;fontColor=default;strokeColor=default;" parent="YNRykgnk4soWltR5KGJY-61" vertex="1">
          <mxGeometry x="180" width="150" height="30" as="geometry">
            <mxRectangle width="150" height="30" as="alternateBounds" />
          </mxGeometry>
        </mxCell>
        <mxCell id="YNRykgnk4soWltR5KGJY-64" value="" style="shape=partialRectangle;collapsible=0;dropTarget=0;pointerEvents=0;fillColor=none;top=0;left=0;bottom=0;right=0;points=[[0,0.5],[1,0.5]];portConstraint=eastwest;fontSize=10;fontColor=default;strokeColor=default;align=center;verticalAlign=middle;" parent="YNRykgnk4soWltR5KGJY-54" vertex="1">
          <mxGeometry y="120" width="330" height="30" as="geometry" />
        </mxCell>
        <mxCell id="YNRykgnk4soWltR5KGJY-65" value="3" style="shape=partialRectangle;connectable=0;fillColor=none;top=0;left=0;bottom=0;right=0;editable=1;overflow=hidden;fontSize=10;fontColor=default;strokeColor=default;align=center;verticalAlign=middle;" parent="YNRykgnk4soWltR5KGJY-64" vertex="1">
          <mxGeometry width="30" height="30" as="geometry">
            <mxRectangle width="30" height="30" as="alternateBounds" />
          </mxGeometry>
        </mxCell>
        <mxCell id="YNRykgnk4soWltR5KGJY-66" value="1" style="shape=partialRectangle;connectable=0;fillColor=none;top=0;left=0;bottom=0;right=0;align=left;spacingLeft=6;overflow=hidden;fontSize=10;fontColor=default;strokeColor=default;" parent="YNRykgnk4soWltR5KGJY-64" vertex="1">
          <mxGeometry x="30" width="150" height="30" as="geometry">
            <mxRectangle width="150" height="30" as="alternateBounds" />
          </mxGeometry>
        </mxCell>
        <mxCell id="YNRykgnk4soWltR5KGJY-74" value="happy" style="shape=partialRectangle;connectable=0;fillColor=none;top=0;left=0;bottom=0;right=0;align=left;spacingLeft=6;overflow=hidden;fontSize=10;fontColor=default;strokeColor=default;" parent="YNRykgnk4soWltR5KGJY-64" vertex="1">
          <mxGeometry x="180" width="150" height="30" as="geometry">
            <mxRectangle width="150" height="30" as="alternateBounds" />
          </mxGeometry>
        </mxCell>
        <mxCell id="YNRykgnk4soWltR5KGJY-75" style="shape=partialRectangle;collapsible=0;dropTarget=0;pointerEvents=0;fillColor=none;top=0;left=0;bottom=0;right=0;points=[[0,0.5],[1,0.5]];portConstraint=eastwest;fontSize=10;fontColor=default;strokeColor=default;align=center;verticalAlign=middle;" parent="YNRykgnk4soWltR5KGJY-54" vertex="1">
          <mxGeometry y="150" width="330" height="30" as="geometry" />
        </mxCell>
        <mxCell id="YNRykgnk4soWltR5KGJY-76" value="4" style="shape=partialRectangle;connectable=0;fillColor=none;top=0;left=0;bottom=0;right=0;editable=1;overflow=hidden;fontSize=10;fontColor=default;strokeColor=default;align=center;verticalAlign=middle;" parent="YNRykgnk4soWltR5KGJY-75" vertex="1">
          <mxGeometry width="30" height="30" as="geometry">
            <mxRectangle width="30" height="30" as="alternateBounds" />
          </mxGeometry>
        </mxCell>
        <mxCell id="YNRykgnk4soWltR5KGJY-77" value="2" style="shape=partialRectangle;connectable=0;fillColor=none;top=0;left=0;bottom=0;right=0;align=left;spacingLeft=6;overflow=hidden;fontSize=10;fontColor=default;strokeColor=default;" parent="YNRykgnk4soWltR5KGJY-75" vertex="1">
          <mxGeometry x="30" width="150" height="30" as="geometry">
            <mxRectangle width="150" height="30" as="alternateBounds" />
          </mxGeometry>
        </mxCell>
        <mxCell id="YNRykgnk4soWltR5KGJY-78" value="divorce" style="shape=partialRectangle;connectable=0;fillColor=none;top=0;left=0;bottom=0;right=0;align=left;spacingLeft=6;overflow=hidden;fontSize=10;fontColor=default;strokeColor=default;" parent="YNRykgnk4soWltR5KGJY-75" vertex="1">
          <mxGeometry x="180" width="150" height="30" as="geometry">
            <mxRectangle width="150" height="30" as="alternateBounds" />
          </mxGeometry>
        </mxCell>
        <mxCell id="YNRykgnk4soWltR5KGJY-79" style="shape=partialRectangle;collapsible=0;dropTarget=0;pointerEvents=0;fillColor=none;top=0;left=0;bottom=0;right=0;points=[[0,0.5],[1,0.5]];portConstraint=eastwest;fontSize=10;fontColor=default;strokeColor=default;align=center;verticalAlign=middle;" parent="YNRykgnk4soWltR5KGJY-54" vertex="1">
          <mxGeometry y="180" width="330" height="30" as="geometry" />
        </mxCell>
        <mxCell id="YNRykgnk4soWltR5KGJY-80" value="5" style="shape=partialRectangle;connectable=0;fillColor=none;top=0;left=0;bottom=0;right=0;editable=1;overflow=hidden;fontSize=10;fontColor=default;strokeColor=default;align=center;verticalAlign=middle;" parent="YNRykgnk4soWltR5KGJY-79" vertex="1">
          <mxGeometry width="30" height="30" as="geometry">
            <mxRectangle width="30" height="30" as="alternateBounds" />
          </mxGeometry>
        </mxCell>
        <mxCell id="YNRykgnk4soWltR5KGJY-81" value="2" style="shape=partialRectangle;connectable=0;fillColor=none;top=0;left=0;bottom=0;right=0;align=left;spacingLeft=6;overflow=hidden;fontSize=10;fontColor=default;strokeColor=default;" parent="YNRykgnk4soWltR5KGJY-79" vertex="1">
          <mxGeometry x="30" width="150" height="30" as="geometry">
            <mxRectangle width="150" height="30" as="alternateBounds" />
          </mxGeometry>
        </mxCell>
        <mxCell id="YNRykgnk4soWltR5KGJY-82" value="legal" style="shape=partialRectangle;connectable=0;fillColor=none;top=0;left=0;bottom=0;right=0;align=left;spacingLeft=6;overflow=hidden;fontSize=10;fontColor=default;strokeColor=default;" parent="YNRykgnk4soWltR5KGJY-79" vertex="1">
          <mxGeometry x="180" width="150" height="30" as="geometry">
            <mxRectangle width="150" height="30" as="alternateBounds" />
          </mxGeometry>
        </mxCell>
        <mxCell id="YNRykgnk4soWltR5KGJY-97" style="shape=partialRectangle;collapsible=0;dropTarget=0;pointerEvents=0;fillColor=none;top=0;left=0;bottom=0;right=0;points=[[0,0.5],[1,0.5]];portConstraint=eastwest;fontSize=10;fontColor=default;strokeColor=default;align=center;verticalAlign=middle;" parent="YNRykgnk4soWltR5KGJY-54" vertex="1">
          <mxGeometry y="210" width="330" height="30" as="geometry" />
        </mxCell>
        <mxCell id="YNRykgnk4soWltR5KGJY-98" value="6" style="shape=partialRectangle;connectable=0;fillColor=none;top=0;left=0;bottom=0;right=0;editable=1;overflow=hidden;fontSize=10;fontColor=default;strokeColor=default;align=center;verticalAlign=middle;" parent="YNRykgnk4soWltR5KGJY-97" vertex="1">
          <mxGeometry width="30" height="30" as="geometry">
            <mxRectangle width="30" height="30" as="alternateBounds" />
          </mxGeometry>
        </mxCell>
        <mxCell id="YNRykgnk4soWltR5KGJY-99" value="2" style="shape=partialRectangle;connectable=0;fillColor=none;top=0;left=0;bottom=0;right=0;align=left;spacingLeft=6;overflow=hidden;fontSize=10;fontColor=default;strokeColor=default;" parent="YNRykgnk4soWltR5KGJY-97" vertex="1">
          <mxGeometry x="30" width="150" height="30" as="geometry">
            <mxRectangle width="150" height="30" as="alternateBounds" />
          </mxGeometry>
        </mxCell>
        <mxCell id="YNRykgnk4soWltR5KGJY-100" value="civil" style="shape=partialRectangle;connectable=0;fillColor=none;top=0;left=0;bottom=0;right=0;align=left;spacingLeft=6;overflow=hidden;fontSize=10;fontColor=default;strokeColor=default;" parent="YNRykgnk4soWltR5KGJY-97" vertex="1">
          <mxGeometry x="180" width="150" height="30" as="geometry">
            <mxRectangle width="150" height="30" as="alternateBounds" />
          </mxGeometry>
        </mxCell>
        <mxCell id="YNRykgnk4soWltR5KGJY-93" style="shape=partialRectangle;collapsible=0;dropTarget=0;pointerEvents=0;fillColor=none;top=0;left=0;bottom=0;right=0;points=[[0,0.5],[1,0.5]];portConstraint=eastwest;fontSize=10;fontColor=default;strokeColor=default;align=center;verticalAlign=middle;" parent="YNRykgnk4soWltR5KGJY-54" vertex="1">
          <mxGeometry y="240" width="330" height="30" as="geometry" />
        </mxCell>
        <mxCell id="YNRykgnk4soWltR5KGJY-94" value="7" style="shape=partialRectangle;connectable=0;fillColor=none;top=0;left=0;bottom=0;right=0;editable=1;overflow=hidden;fontSize=10;fontColor=default;strokeColor=default;align=center;verticalAlign=middle;" parent="YNRykgnk4soWltR5KGJY-93" vertex="1">
          <mxGeometry width="30" height="30" as="geometry">
            <mxRectangle width="30" height="30" as="alternateBounds" />
          </mxGeometry>
        </mxCell>
        <mxCell id="YNRykgnk4soWltR5KGJY-95" value="2" style="shape=partialRectangle;connectable=0;fillColor=none;top=0;left=0;bottom=0;right=0;align=left;spacingLeft=6;overflow=hidden;fontSize=10;fontColor=default;strokeColor=default;" parent="YNRykgnk4soWltR5KGJY-93" vertex="1">
          <mxGeometry x="30" width="150" height="30" as="geometry">
            <mxRectangle width="150" height="30" as="alternateBounds" />
          </mxGeometry>
        </mxCell>
        <mxCell id="YNRykgnk4soWltR5KGJY-96" value="family" style="shape=partialRectangle;connectable=0;fillColor=none;top=0;left=0;bottom=0;right=0;align=left;spacingLeft=6;overflow=hidden;fontSize=10;fontColor=default;strokeColor=default;" parent="YNRykgnk4soWltR5KGJY-93" vertex="1">
          <mxGeometry x="180" width="150" height="30" as="geometry">
            <mxRectangle width="150" height="30" as="alternateBounds" />
          </mxGeometry>
        </mxCell>
        <mxCell id="YNRykgnk4soWltR5KGJY-89" style="shape=partialRectangle;collapsible=0;dropTarget=0;pointerEvents=0;fillColor=none;top=0;left=0;bottom=0;right=0;points=[[0,0.5],[1,0.5]];portConstraint=eastwest;fontSize=10;fontColor=default;strokeColor=default;align=center;verticalAlign=middle;" parent="YNRykgnk4soWltR5KGJY-54" vertex="1">
          <mxGeometry y="270" width="330" height="30" as="geometry" />
        </mxCell>
        <mxCell id="YNRykgnk4soWltR5KGJY-90" value="8" style="shape=partialRectangle;connectable=0;fillColor=none;top=0;left=0;bottom=0;right=0;editable=1;overflow=hidden;fontSize=10;fontColor=default;strokeColor=default;align=center;verticalAlign=middle;" parent="YNRykgnk4soWltR5KGJY-89" vertex="1">
          <mxGeometry width="30" height="30" as="geometry">
            <mxRectangle width="30" height="30" as="alternateBounds" />
          </mxGeometry>
        </mxCell>
        <mxCell id="YNRykgnk4soWltR5KGJY-91" value="" style="shape=partialRectangle;connectable=0;fillColor=none;top=0;left=0;bottom=0;right=0;align=left;spacingLeft=6;overflow=hidden;fontSize=10;fontColor=default;strokeColor=default;" parent="YNRykgnk4soWltR5KGJY-89" vertex="1">
          <mxGeometry x="30" width="150" height="30" as="geometry">
            <mxRectangle width="150" height="30" as="alternateBounds" />
          </mxGeometry>
        </mxCell>
        <mxCell id="YNRykgnk4soWltR5KGJY-92" style="shape=partialRectangle;connectable=0;fillColor=none;top=0;left=0;bottom=0;right=0;align=left;spacingLeft=6;overflow=hidden;fontSize=10;fontColor=default;strokeColor=default;" parent="YNRykgnk4soWltR5KGJY-89" vertex="1">
          <mxGeometry x="180" width="150" height="30" as="geometry">
            <mxRectangle width="150" height="30" as="alternateBounds" />
          </mxGeometry>
        </mxCell>
        <mxCell id="YNRykgnk4soWltR5KGJY-121" value="" style="endArrow=ERmany;startArrow=classic;html=1;rounded=0;fontSize=10;fontColor=default;strokeColor=default;labelBackgroundColor=default;exitX=1;exitY=0.5;exitDx=0;exitDy=0;entryX=0;entryY=0.5;entryDx=0;entryDy=0;endFill=0;" parent="1" source="YNRykgnk4soWltR5KGJY-6" target="YNRykgnk4soWltR5KGJY-45" edge="1">
          <mxGeometry width="50" height="50" relative="1" as="geometry">
            <mxPoint x="1110" y="260" as="sourcePoint" />
            <mxPoint x="1160" y="210" as="targetPoint" />
          </mxGeometry>
        </mxCell>
        <mxCell id="YNRykgnk4soWltR5KGJY-126" value="" style="endArrow=ERmany;startArrow=classic;html=1;rounded=0;labelBackgroundColor=default;fontSize=10;fontColor=default;strokeColor=default;entryX=0;entryY=0.5;entryDx=0;entryDy=0;exitX=1;exitY=0.5;exitDx=0;exitDy=0;endFill=0;" parent="1" source="YNRykgnk4soWltR5KGJY-16" target="YNRykgnk4soWltR5KGJY-55" edge="1">
          <mxGeometry width="50" height="50" relative="1" as="geometry">
            <mxPoint x="1230" y="540" as="sourcePoint" />
            <mxPoint x="1280" y="490" as="targetPoint" />
          </mxGeometry>
        </mxCell>
        <mxCell id="YNRykgnk4soWltR5KGJY-127" value="" style="endArrow=ERmany;startArrow=classic;html=1;rounded=0;labelBackgroundColor=default;fontSize=10;fontColor=default;strokeColor=default;exitX=1;exitY=0.5;exitDx=0;exitDy=0;entryX=0;entryY=0.5;entryDx=0;entryDy=0;endFill=0;" parent="1" source="YNRykgnk4soWltR5KGJY-83" target="YNRykgnk4soWltR5KGJY-32" edge="1">
          <mxGeometry width="50" height="50" relative="1" as="geometry">
            <mxPoint x="1310" y="630" as="sourcePoint" />
            <mxPoint x="1360" y="580" as="targetPoint" />
          </mxGeometry>
        </mxCell>
        <mxCell id="lur0lndXehot5ZjDqAEc-1" value="Team Frontend:&lt;br style=&quot;font-size: 13px&quot;&gt;Brian&lt;br&gt;Dustin" style="rounded=0;whiteSpace=wrap;html=1;fontSize=13;fontColor=default;strokeColor=default;fillColor=default;align=center;verticalAlign=middle;" vertex="1" parent="1">
          <mxGeometry x="50" y="10" width="220" height="100" as="geometry" />
        </mxCell>
        <mxCell id="lur0lndXehot5ZjDqAEc-2" value="Team Backend:&lt;br&gt;Floyd&lt;br&gt;Mario&lt;br&gt;Stephen" style="rounded=0;whiteSpace=wrap;html=1;fontSize=13;fontColor=default;strokeColor=default;fillColor=default;align=center;verticalAlign=middle;" vertex="1" parent="1">
          <mxGeometry x="327.5" y="10" width="220" height="100" as="geometry" />
        </mxCell>
        <mxCell id="lur0lndXehot5ZjDqAEc-3" value="User Routes" style="swimlane;fontStyle=0;childLayout=stackLayout;horizontal=1;startSize=26;horizontalStack=0;resizeParent=1;resizeParentMax=0;resizeLast=0;collapsible=1;marginBottom=0;align=center;fontSize=14;fontColor=default;fillColor=default;strokeColor=default;" vertex="1" parent="1">
          <mxGeometry x="345" y="570" width="185" height="56" as="geometry" />
        </mxCell>
        <mxCell id="lur0lndXehot5ZjDqAEc-4" value="/users" style="text;strokeColor=none;fillColor=none;spacingLeft=4;spacingRight=4;overflow=hidden;rotatable=0;points=[[0,0.5],[1,0.5]];portConstraint=eastwest;fontSize=12;fontColor=default;" vertex="1" parent="lur0lndXehot5ZjDqAEc-3">
          <mxGeometry y="26" width="185" height="30" as="geometry" />
        </mxCell>
      </root>
    </mxGraphModel>
  </diagram>
</mxfile>
